<svg xmlns="http://www.w3.org/2000/svg" viewBox="0 0 538.58 340.16"><defs><style>.cls-1{fill:#11aa6a;}.cls-2{fill:#fff;}.cls-3{fill:#fecd5f;}</style></defs><g id="Layer_1" data-name="Layer 1"><path class="cls-1" d="M381.4,121c0,58.61-52.1,107.92-112.57,107.92-61.41-.93-112.58-52.1-111.65-113.5C158.12,54.91,208.35,4.67,269.75,4.67,333,4.67,382.33,55.84,381.4,121Z"/><path class="cls-2" d="M362.79,129.1c-6.5,7.44-7.43,15.82-6.5,25.12,1.85,10.24-2.8,16.75-12.1,20.47S329.3,184,325.58,193.3c-3.72,10.23-11.16,13.95-20.47,12.09-10.23-1.86-18.6.93-26,7.44-7.45,5.59-15.82,5.59-22.33,0-8.38-6.51-16.75-9.3-27-7.44S213,202.6,209.29,194.23c-3.72-10.24-9.31-16.75-19.54-20.47-8.37-2.79-12.1-9.3-11.16-18.61,1.86-10.23,0-19.53-7.45-27.91-5.58-7.44-5.58-14.88,0-21.39,6.51-8.38,9.31-16.75,7.45-27-.94-10.23,3.72-16.74,13-20.46,8.37-3.73,14.89-9.31,17.68-17.68,3.72-10.23,11.16-14,22.33-12.09,8.37.93,15.81-.94,23.26-6.52,8.37-7.44,16.74-7.44,26.05,0,6.51,5.58,13.95,7.45,22.33,6.52,11.16-1.87,19.53,1.86,23.25,13,2.79,6.51,7.44,13,14.89,15.82,12.09,3.72,17.67,12.09,14.89,25.12a26.59,26.59,0,0,0,5.58,20.46C369.31,111.43,370.24,120.73,362.79,129.1Z"/><path class="cls-1" d="M308.82,118.25c0,20.67-18.37,38.06-39.69,38.06-21.66-.33-39.7-18.38-39.37-40a39.92,39.92,0,0,1,39.69-39C291.77,77.24,309.15,95.29,308.82,118.25Z"/><path class="cls-1" d="M308.82,118.25c0,20.67-18.37,38.06-39.69,38.06-21.66-.33-39.7-18.38-39.37-40a39.92,39.92,0,0,1,39.69-39C291.77,77.24,309.15,95.29,308.82,118.25Z"/><path class="cls-2" d="M270.08,85.15c18,.19,31.23,13.92,30.88,32-.35,17.64-14.72,31.65-32.08,31.26S237.32,133.16,237.63,116C237.94,98.44,252.14,85,270.08,85.15Z"/><path class="cls-3" d="M273.43,41.22c-4.33.75-7.82-1.79-11.35-3.91-1.34-.79-1.5-3,0-3.42,4.43-1.3,8,1.48,11.48,3.58C274.77,38.21,275,39.79,273.43,41.22Z"/><path class="cls-3" d="M190.78,109.75c-4.86-2.26-6.59-7.24-8.67-11.82-.78-1.72.58-4,2.35-3.45,5.36,1.78,7,7,9,11.57C194.23,107.66,193.31,109.37,190.78,109.75Z"/><path class="cls-3" d="M204,78.77c-3.55,2.85-8,2.29-12.25,2.14-1.6,0-2.85-2-1.73-3.09,3.36-3.4,8-2.65,12.2-2.5C203.67,75.37,204.63,76.71,204,78.77Z"/><path class="cls-3" d="M239.27,78.74c-2.32,3.91-6.67,4.94-10.72,6.31-1.52.51-3.35-.84-2.71-2.29,2-4.37,6.52-5.28,10.54-6.63C237.8,75.65,239.17,76.57,239.27,78.74Z"/><path class="cls-3" d="M219.14,98.62c-2.32,3.92-6.67,4.95-10.72,6.31-1.52.52-3.35-.83-2.71-2.28,2-4.37,6.52-5.28,10.54-6.64C217.67,95.53,219,96.45,219.14,98.62Z"/><path class="cls-3" d="M253.88,72.46c-2.89-3.25-2.62-7.7-2.74-11.95,0-1.6,1.67-3,2.79-2,3.41,3,3,7.65,3.1,11.87C257.07,71.86,255.86,72.94,253.88,72.46Z"/><path class="cls-3" d="M313.47,98.18c1.85-3.94,6-5.46,9.9-7.24,1.45-.67,3.43.35,2.95,1.78-1.43,4.32-5.85,5.75-9.68,7.52C315.28,100.87,313.82,100.19,313.47,98.18Z"/><path class="cls-3" d="M304.41,80c-2.54-3.54-1.81-8-1.49-12.18.13-1.59,2-2.82,3-1.71,3.07,3.36,2.15,7.92,1.83,12.13C307.64,79.74,306.33,80.68,304.41,80Z"/><path class="cls-3" d="M275.43,64.17c1.85-3.94,6-5.46,9.9-7.24,1.45-.67,3.42.35,2.95,1.78-1.44,4.32-5.86,5.75-9.69,7.52C277.24,66.86,275.77,66.18,275.43,64.17Z"/><path class="cls-3" d="M343.05,153.47c.19,5.66-3.77,9.91-7.18,14.26-1.28,1.64-4.18,1.63-4.48-.31-.9-5.86,3.38-10.14,6.77-14.46C339.36,151.43,341.46,151.35,343.05,153.47Z"/><path class="cls-3" d="M280.84,178.43c-5.57-1-8.86-5.83-12.38-10.1-1.32-1.6-.68-4.43,1.27-4.3,5.92.39,9.17,5.49,12.67,9.73C283.63,175.26,283.26,177.33,280.84,178.43Z"/><path class="cls-3" d="M246.87,187.52c-.58,4.23-4.07,6.88-7.15,9.68-1.16,1.05-3.31.67-3.28-.8.07-4.47,3.8-7.1,6.86-9.88C244.39,185.54,246,185.74,246.87,187.52Z"/><path class="cls-3" d="M260.85,196.81c4.9,1.36,7,5.54,9.48,9.31.92,1.43-.17,3.64-1.93,3.35-5.34-.87-7.39-5.3-9.81-9.05C257.73,199.1,258.45,197.46,260.85,196.81Z"/><path class="cls-3" d="M309.71,161.77c-4.26-3.73-4.65-9.53-5.49-15-.32-2.06,1.67-4.16,3.29-3.05,4.89,3.35,5.08,9.4,5.92,14.83C313.73,160.47,312.35,162.06,309.71,161.77Z"/><path class="cls-3" d="M328.48,131.18c-4.41.94-8.3-1.57-12.19-3.63-1.47-.78-1.86-3-.39-3.55,4.47-1.53,8.43,1.22,12.29,3.27C329.56,128,329.92,129.63,328.48,131.18Z"/><path class="cls-3" d="M338.74,75.66c-4.92-1-6.74-4.44-8.9-7.5-.82-1.15.51-3,2.3-2.77,5.41.64,7.12,4.23,9.27,7.27C342.17,73.74,341.28,75.09,338.74,75.66Z"/><path class="cls-3" d="M346.73,119c-2.64-3.61-2.63-9.5-3-15-.12-2.08,1.28-4.31,2.3-3.25,3.06,3.19,2.92,9.34,3.24,14.83C349.43,117.51,348.45,119.19,346.73,119Z"/><path class="cls-3" d="M218.93,176.09c-6.66-.79-10.66-6-14.91-10.66-1.6-1.75-.88-5,1.45-5,7.06,0,11,5.62,15.25,10.23C222.21,172.26,221.79,174.66,218.93,176.09Z"/><path class="cls-3" d="M236,172.25c-1.74-5.53,1-11.42,3.16-17.18.82-2.17,3.68-3.39,4.5-1.6,2.5,5.43-.54,11.49-2.69,17.22A3.13,3.13,0,0,1,236,172.25Z"/><path class="cls-3" d="M290.05,187.16c1.87-5.49,7.58-8.61,12.74-12,1.94-1.26,5-.55,4.56,1.39-1.21,5.85-7.25,8.92-12.38,12.25A3.12,3.12,0,0,1,290.05,187.16Z"/><path class="cls-3" d="M214.32,132c-3.64,5.67-10.13,7-16.17,8.78-2.28.68-4.93-1.41-3.9-3.52,3.12-6.36,9.92-7.47,15.93-9.27C212.31,127.32,214.29,128.75,214.32,132Z"/><path class="cls-3" d="M237.33,40.17c2.66,6,.45,10.55-1.13,15.23-.6,1.76-3.56,1.82-4.7-.22-3.47-6.16-1-10.78.61-15.43C232.67,38.1,234.78,38,237.33,40.17Z"/><path class="cls-1" d="M165.64,242.87a3.54,3.54,0,0,1,1.08,2.56,4.37,4.37,0,0,1-1.29,3.52c-.85.74-2.21,1-4.07.88-4.18-.34-7.43-.57-9.78-.7s-5.42-.2-9.22-.25q-2.58,13.49-4.74,27.11-.76,5-1.6,11.54t-1.11,10.59a4.17,4.17,0,0,1-1.67,3.26,6,6,0,0,1-3.69,1.14,5,5,0,0,1-3.55-1.18,4,4,0,0,1-1.25-3.07,51.6,51.6,0,0,1,.52-5.83c.35-2.71.75-5.55,1.22-8.54s.9-5.57,1.18-7.76q.77-5.56,1.74-11.07t2-10.4c.14-.74.3-1.58.49-2.53s.39-2,.62-3.19a55.45,55.45,0,0,0-10.72,1.17,11.27,11.27,0,0,0-5.53,2.68,6.17,6.17,0,0,0-1.64,4.43A9,9,0,0,0,116,262a2.29,2.29,0,0,1,.27,1.09,3.38,3.38,0,0,1-1.56,2.61,5.27,5.27,0,0,1-3.24,1.2,2.7,2.7,0,0,1-2-.73,9.18,9.18,0,0,1-2.3-3.55,14.36,14.36,0,0,1-.9-5.24,13.36,13.36,0,0,1,3.86-10q3.87-3.78,11.77-5.54a96.3,96.3,0,0,1,20.29-1.75q7.65,0,12.22.29a63.5,63.5,0,0,1,8,1A6.15,6.15,0,0,1,165.64,242.87Z"/><path class="cls-1" d="M155.62,299.48a13.65,13.65,0,0,1-2-7.59,67.81,67.81,0,0,1,.69-10.07,65,65,0,0,1,2.3-9.71,6.06,6.06,0,0,1,2-3.15,6.54,6.54,0,0,1,4-1,3.26,3.26,0,0,1,2.13.52,1.93,1.93,0,0,1,.59,1.54,30.15,30.15,0,0,1-.77,3.95q-.69,2.72-1.11,4.91A72.36,72.36,0,0,0,162,289.18a4.63,4.63,0,0,0,.35,2.16,1.17,1.17,0,0,0,1.11.63c.7,0,1.57-.74,2.61-2.2a33.1,33.1,0,0,0,3.34-6.67,92.73,92.73,0,0,0,3.45-11,5.82,5.82,0,0,1,1.7-3.15,5.3,5.3,0,0,1,3.45-1,4.38,4.38,0,0,1,2.23.41,1.65,1.65,0,0,1,.62,1.5,74.4,74.4,0,0,1-1.74,10q-2,9.38-2,11.58a3.67,3.67,0,0,0,.56,2.16,1.73,1.73,0,0,0,1.46.77,5.35,5.35,0,0,0,3.31-1.8,58.21,58.21,0,0,0,5.11-5.83,2.42,2.42,0,0,1,1.88-1,1.59,1.59,0,0,1,1.43.88,4.7,4.7,0,0,1,.52,2.42,7,7,0,0,1-1.32,4.54,31.48,31.48,0,0,1-6.44,6.37,13,13,0,0,1-7.83,2.5,5.28,5.28,0,0,1-4.91-2.72,15.35,15.35,0,0,1-1.56-7.61,17.59,17.59,0,0,1-3.55,7.65,6.8,6.8,0,0,1-5.08,2.68A5.94,5.94,0,0,1,155.62,299.48Z"/><path class="cls-1" d="M214.82,284.71q0,5.79-8.63,5.79a25.28,25.28,0,0,1-4.8-.66q.9,4.55,1.49,10.08a87.42,87.42,0,0,1,.6,9.12q0,7.9-2.44,12.09c-1.62,2.78-3.76,4.18-6.4,4.18-3.35,0-5.72-2.5-7.14-7.48s-2.12-12.51-2.12-22.57a145.23,145.23,0,0,1,2.89-28.54q2.88-14.48,7.93-24t11.11-9.49a5.7,5.7,0,0,1,5.11,3.08,16,16,0,0,1,1.85,8.28q0,17.22-19.57,37.52-.69,7.17-.69,12.6,0,7.54.49,15.5t1.6,7.95q2.09,0,2.09-7.62a83,83,0,0,0-.73-11.07q-.74-5.34-2-11.28a5.21,5.21,0,0,1,.59-2.42,9.94,9.94,0,0,1,1.64-2.56,2.59,2.59,0,0,1,1.74-1.1c.93,0,2,0,3.34.14a12.45,12.45,0,0,0,1.46.08,42.42,42.42,0,0,0,6.2-.52l1.18-.14a10.63,10.63,0,0,1,1.25-.08C214.17,281.63,214.82,282.66,214.82,284.71ZM202.75,245a86.38,86.38,0,0,0-3.66,11.84q-1.82,7.37-3.13,15.57a53.78,53.78,0,0,0,8.56-13.89A36.42,36.42,0,0,0,207.58,245q0-4.45-1.74-4.46C205,240.53,204,242,202.75,245Z"/><path class="cls-1" d="M246.6,286.87a4.59,4.59,0,0,1,.52,2.31,5.83,5.83,0,0,1-.49,2.64,4.57,4.57,0,0,1-1.53,1.68L231.74,303q-2.66,15.17-6.93,23.85t-10.89,8.68a7.66,7.66,0,0,1-5.78-2.31,8.31,8.31,0,0,1-2.23-6,18.17,18.17,0,0,1,1.5-7,31.85,31.85,0,0,1,5.57-8.24A93,93,0,0,1,224.5,301.2l.21-1.69c.32-1.81.69-4.39,1.11-7.76a19,19,0,0,1-3.9,8,7.2,7.2,0,0,1-5.29,2.75,5.92,5.92,0,0,1-5.11-3,13.57,13.57,0,0,1-2-7.59,61.94,61.94,0,0,1,3-19.78,6.19,6.19,0,0,1,1.95-3.15,6.57,6.57,0,0,1,4-1,3.28,3.28,0,0,1,2.13.52,1.93,1.93,0,0,1,.59,1.54,32.18,32.18,0,0,1-.77,3.95c-.46,1.81-.84,3.45-1.11,4.91-.37,2-.7,3.92-1,5.75a31.19,31.19,0,0,0-.42,4.51q0,2.79,1.47,2.79c.69,0,1.56-.74,2.61-2.2a33.63,33.63,0,0,0,3.34-6.67,92.89,92.89,0,0,0,3.44-11,5.83,5.83,0,0,1,1.71-3.15,5.28,5.28,0,0,1,3.45-1,4.11,4.11,0,0,1,2.22.44,1.68,1.68,0,0,1,.63,1.47q0,1.83-1.81,12.6l-1.81,11.8q5.35-4.24,10.44-7.77a3,3,0,0,1,1.6-.58A1.58,1.58,0,0,1,246.6,286.87Zm-28,37.26q2.16-4.25,4.32-14.14a40.67,40.67,0,0,0-7.76,8.68,13.58,13.58,0,0,0-2.41,6.85,4.11,4.11,0,0,0,.46,2.06,1.58,1.58,0,0,0,1.49.8Q216.42,328.38,218.58,324.13Z"/><path class="cls-1" d="M265.92,299q-5.58-3.71-5.57-11.33a11.76,11.76,0,0,1,1.32-6.15,4.3,4.3,0,0,1,3.9-2.13,4.53,4.53,0,0,1,3.06,1,3.33,3.33,0,0,1,1.18,2.64,13.71,13.71,0,0,1-.21,2.56,8.19,8.19,0,0,1-.1,1,10.87,10.87,0,0,0-.1,1.54,5.22,5.22,0,0,0,3.16,4.91q3.17,1.61,8.88,1.61,5.91,0,9.26-2.24a7.1,7.1,0,0,0,3.34-6.26,6.41,6.41,0,0,0-1.53-4.29,12.8,12.8,0,0,0-3.83-3q-2.3-1.21-6.47-3a70.75,70.75,0,0,1-8.74-4.18,18.35,18.35,0,0,1-5.78-5.38,14.33,14.33,0,0,1-2.4-8.47,16.71,16.71,0,0,1,2.68-9.37,17.55,17.55,0,0,1,7.73-6.38,28.76,28.76,0,0,1,11.87-2.27,26.61,26.61,0,0,1,9.32,1.57,15.3,15.3,0,0,1,6.79,4.8,12.37,12.37,0,0,1,2.54,7.92,14.54,14.54,0,0,1-1.32,7,4.45,4.45,0,0,1-6.93,1.17,3.74,3.74,0,0,1-1.22-2.78A14.61,14.61,0,0,1,297,257c.14-1.46.21-2.39.21-2.78a5.11,5.11,0,0,0-2.85-4.69,14.23,14.23,0,0,0-7.1-1.61c-4,0-7.05.77-9.16,2.3a7.56,7.56,0,0,0-3.16,6.49,7.22,7.22,0,0,0,1.63,4.76,13.67,13.67,0,0,0,4.07,3.3c1.63.88,3.9,1.93,6.83,3.15a86.44,86.44,0,0,1,8.49,4.1,17.17,17.17,0,0,1,5.46,5,13,13,0,0,1,2.27,7.76q0,8.66-6.23,13.3t-16.68,4.66Q271.49,302.74,265.92,299Z"/><path class="cls-1" d="M341.34,286.69a4.7,4.7,0,0,1,.52,2.42,7,7,0,0,1-1.32,4.54A30.43,30.43,0,0,1,334,300a13.8,13.8,0,0,1-8.15,2.5q-14.21,0-14.2-21,0-3.23.21-6.53h-2.72a2.88,2.88,0,0,1-3.55-3.37q0-4.09,3.14-4.1h4a74.88,74.88,0,0,1,3.62-14.73,33.66,33.66,0,0,1,5.89-10.62q3.44-4,7.41-4a5.16,5.16,0,0,1,4.59,2.71,12.74,12.74,0,0,1,1.68,6.82q0,11.35-9.06,19.78h7.8a2.13,2.13,0,0,1,1.6.51,2.79,2.79,0,0,1,.49,1.91q0,5.05-7.87,5h-8.49c-.09,2.45-.14,4.35-.14,5.72q0,7.62,1.71,10.7a5.72,5.72,0,0,0,5.39,3.08,8,8,0,0,0,5.29-1.91,42.41,42.41,0,0,0,5.43-5.72,2.42,2.42,0,0,1,1.88-1A1.6,1.6,0,0,1,341.34,286.69ZM325.4,248a40.85,40.85,0,0,0-2.44,7.62,108.5,108.5,0,0,0-1.91,10.81,24.91,24.91,0,0,0,6.16-8.39,21.17,21.17,0,0,0,2.05-8.46c0-2.88-.51-4.33-1.53-4.33C327,245.21,326.26,246.13,325.4,248Z"/><path class="cls-1" d="M373.12,280.61a5.35,5.35,0,0,1,.48,2.42q0,3.51-2,4.17a30.32,30.32,0,0,1-9.2,1.76,18.63,18.63,0,0,1-5.21,9.86,12.55,12.55,0,0,1-8.85,3.7,11.87,11.87,0,0,1-7.13-2.13,13.34,13.34,0,0,1-4.49-5.64,18.93,18.93,0,0,1-1.53-7.62,23.34,23.34,0,0,1,2-9.93,16.49,16.49,0,0,1,5.56-6.82,13.58,13.58,0,0,1,7.87-2.45,10.59,10.59,0,0,1,8.53,3.85,16.9,16.9,0,0,1,3.79,9.49,40.73,40.73,0,0,0,7.8-1.47,3.83,3.83,0,0,1,1-.15A1.52,1.52,0,0,1,373.12,280.61Zm-20.36,12.23a10.94,10.94,0,0,0,2.19-5.49,10.05,10.05,0,0,1-3.31-4,12.54,12.54,0,0,1-1.15-5.28,13.22,13.22,0,0,1,.21-2.34h-.35a5.43,5.43,0,0,0-4.63,2.82q-1.85,2.82-1.84,8a10.57,10.57,0,0,0,1.5,6.15,4.25,4.25,0,0,0,3.51,2.13A4.94,4.94,0,0,0,352.76,292.84Z"/><path class="cls-1" d="M368.83,299.58c-.72-1.95-1.07-5.08-1.07-9.37a62.46,62.46,0,0,1,2.57-18.1,5.54,5.54,0,0,1,2.05-3.12,7,7,0,0,1,4-1,3.84,3.84,0,0,1,1.95.37,1.54,1.54,0,0,1,.55,1.39,29.78,29.78,0,0,1-1,5.28c-.46,1.95-.84,3.66-1.11,5.13a52.66,52.66,0,0,0-.7,5.42,42.55,42.55,0,0,1,5.15-10.26,20.58,20.58,0,0,1,5.6-5.64,9.91,9.91,0,0,1,5-1.69q4.53,0,4.53,4.77a38.47,38.47,0,0,1-.63,4.61,29,29,0,0,0-.56,3.67c0,1.71.58,2.56,1.74,2.56s3-1.07,5-3.22a2.62,2.62,0,0,1,1.88-1,1.62,1.62,0,0,1,1.43.85,4.18,4.18,0,0,1,.52,2.23,6.08,6.08,0,0,1-1.39,4.25,18.9,18.9,0,0,1-4.56,3.63,10.92,10.92,0,0,1-5.53,1.5,7.46,7.46,0,0,1-5.61-2,7.39,7.39,0,0,1-1.91-5.35,11.6,11.6,0,0,1,.21-2.19c.09-1,.14-1.64.14-2,0-.78-.26-1.18-.77-1.18-.69,0-1.61.82-2.75,2.46a34.9,34.9,0,0,0-3.37,6.48,54.78,54.78,0,0,0-2.72,8.5,11.85,11.85,0,0,1-1.77,4.66,3.93,3.93,0,0,1-3.17,1.21Q369.91,302.52,368.83,299.58Z"/><path class="cls-1" d="M431.76,286.69a4.7,4.7,0,0,1,.52,2.42,7,7,0,0,1-1.32,4.54,25.63,25.63,0,0,1-7.27,6.08,19.4,19.4,0,0,1-10.06,2.79q-7.32,0-11.35-4.18c-2.69-2.79-4-6.59-4-11.43a22.25,22.25,0,0,1,2-9.42,17.27,17.27,0,0,1,5.61-6.92A13.59,13.59,0,0,1,414,268a8.6,8.6,0,0,1,6.47,2.53,9.49,9.49,0,0,1,2.44,6.85,12.18,12.18,0,0,1-3.45,8.69q-3.45,3.62-11.66,5.75c1.16,2.24,3.36,3.37,6.61,3.37a14.68,14.68,0,0,0,7.14-2.31,23.8,23.8,0,0,0,6.93-6.05,2.39,2.39,0,0,1,1.88-1A1.59,1.59,0,0,1,431.76,286.69Zm-23.32-8.36a15.4,15.4,0,0,0-1.77,7.63v.14a15.55,15.55,0,0,0,6.47-3.07,6.16,6.16,0,0,0,2.37-4.77,3.31,3.31,0,0,0-.73-2.23,2.51,2.51,0,0,0-2-.85C411.08,275.18,409.63,276.24,408.44,278.33Z"/></g></svg>